<?xml version="1.0" standalone="no"?>
<!DOCTYPE svg PUBLIC "-//W3C//DTD SVG 1.1//EN" "http://www.w3.org/Graphics/SVG/1.1/DTD/svg11.dtd" >
<svg xmlns="http://www.w3.org/2000/svg">
<metadata>
Created by FontForge 20120731 at Fri Apr 15 14:33:14 2016
 By admin
</metadata>
<defs>
<font id="iconfont" horiz-adv-x="1024" >
  <font-face 
    font-family="iconfont"
    font-weight="500"
    font-stretch="normal"
    units-per-em="1024"
    panose-1="2 0 6 3 0 0 0 0 0 0"
    ascent="896"
    descent="-128"
    x-height="792"
    bbox="2 -126.935 1024 893"
    underline-thickness="50"
    underline-position="-100"
    unicode-range="U+0078-E62F"
  />
<missing-glyph horiz-adv-x="374" 
d="M34 0v682h272v-682h-272zM68 34h204v614h-204v-614z" />
    <glyph glyph-name=".notdef" horiz-adv-x="374" 
d="M34 0v682h272v-682h-272zM68 34h204v614h-204v-614z" />
    <glyph glyph-name=".null" horiz-adv-x="0" 
 />
    <glyph glyph-name="nonmarkingreturn" horiz-adv-x="341" 
 />
    <glyph glyph-name="x" unicode="x" horiz-adv-x="1001" 
d="M281 543q-27 -1 -53 -1h-83q-18 0 -36.5 -6t-32.5 -18.5t-23 -32t-9 -45.5v-76h912v41q0 16 -0.5 30t-0.5 18q0 13 -5 29t-17 29.5t-31.5 22.5t-49.5 9h-133v-97h-438v97zM955 310v-52q0 -23 0.5 -52t0.5 -58t-10.5 -47.5t-26 -30t-33 -16t-31.5 -4.5q-14 -1 -29.5 -0.5
t-29.5 0.5h-32l-45 128h-439l-44 -128h-29h-34q-20 0 -45 1q-25 0 -41 9.5t-25.5 23t-13.5 29.5t-4 30v167h911zM163 247q-12 0 -21 -8.5t-9 -21.5t9 -21.5t21 -8.5q13 0 22 8.5t9 21.5t-9 21.5t-22 8.5zM316 123q-8 -26 -14 -48q-5 -19 -10.5 -37t-7.5 -25t-3 -15t1 -14.5
t9.5 -10.5t21.5 -4h37h67h81h80h64h36q23 0 34 12t2 38q-5 13 -9.5 30.5t-9.5 34.5q-5 19 -11 39h-368zM336 498v228q0 11 2.5 23t10 21.5t20.5 15.5t34 6h188q31 0 51.5 -14.5t20.5 -52.5v-227h-327z" />
    <glyph glyph-name="uniE600" unicode="&#xe600;" 
d="M453 184zM458.5 758q123.5 0 211.5 -87.5t88 -211.5t-88 -211.5t-211.5 -87.5t-211.5 87.5t-88 211.5t88 211.5t211.5 87.5zM459 822q-99 0 -183 -48.5t-132.5 -132t-48.5 -182.5t48.5 -182.5t132.5 -132t182.5 -48.5t182.5 48.5t132.5 132t48.5 182.5t-48.5 182.5
t-132.5 132t-182 48.5zM691 228l-46 -44l218 -228h1q10 -11 24 -12t23.5 8t9 23t-10.5 25z" />
    <glyph glyph-name="uniE601" unicode="&#xe601;" 
d="M504 636zM504 838q-90 0 -166.5 -45t-121 -122.5t-44.5 -169.5q0 -89 45 -168q216 -356 271 -396q3 -3 7 -5t9 -2v0v0q3 0 5 1h1q1 0 3 1q4 1 7 4q59 40 265 388l6 9q45 78 45 168q0 92 -44.5 169.5t-121 122.5t-166.5 45zM504 367q-55 0 -94 39.5t-39 95t39 95t94 39.5
t94 -39.5t39 -95t-39 -95t-94 -39.5z" />
    <glyph glyph-name="uniE602" unicode="&#xe602;" 
d="M504 636zM515 774q111 0 189 -80q79 -80 79 -193q0 -72 -36 -135l-5 -8v-1l-1 -1q-156 -264 -225 -346q-66 82 -232 355q-36 64 -36 136q0 113 78.5 193t188.5 80zM515 838q-90 0 -166.5 -45t-120.5 -122.5t-44 -169.5q0 -89 45 -168q215 -355 270 -396q3 -3 7 -5t9 -2h1
v0q3 0 5 1q2 0 3 1q4 1 8 4q59 40 264 388l6 9q45 78 45 168q0 92 -44.5 169.5t-121 122.5t-166.5 45zM515.5 572q28.5 0 48.5 -20.5t20 -50t-20 -50t-48.5 -20.5t-49 20.5t-20.5 50t20.5 50t49 20.5zM515 636q-55 0 -94 -39.5t-39 -95t39 -95t94 -39.5t94 39.5t39 95
t-39 95t-94 39.5z" />
    <glyph glyph-name="uniE603" unicode="&#xe603;" 
d="M483 239q-33 0 -56 -23.5t-24 -56.5v-150q0 -33 -23.5 -56.5t-56.5 -23.5h-90q-33 0 -56.5 23.5t-23.5 56.5v316h-105q-17 0 -24 16t6 28l463 459q8 8 18.5 8t18.5 -8l464 -459q12 -12 5.5 -28t-24.5 -16h-105v-316q0 -33 -23.5 -56.5t-56.5 -23.5h-90q-33 0 -56.5 23.5
t-23.5 56.5v150q0 32 -22.5 55t-54.5 25h-60z" />
    <glyph glyph-name="uniE604" unicode="&#xe604;" 
d="M512 751l371 -367h-12h-64v-64v-316q0 -6 -5 -11t-11 -5h-91q-6 0 -11 5t-5 11v150q0 58 -40 99.5t-98 44.5h-1h-2h-59q-60 0 -102 -42t-42 -102v-150q0 -6 -5 -11t-11 -5h-91q-6 0 -11 5t-5 11v316v64h-64h-12zM512 831q-11 0 -18 -8l-464 -459q-12 -12 -5.5 -28
t23.5 -16h105v-316q0 -33 23.5 -56.5t56.5 -23.5h91q33 0 56.5 23.5t23.5 56.5v150q0 33 23.5 56.5t56.5 23.5h59q32 -2 54.5 -25t22.5 -55v-150q0 -33 23.5 -56.5t56.5 -23.5h91q33 0 56.5 23.5t23.5 56.5v316h105q17 0 23.5 16t-5.5 28l-464 459q-7 8 -18 8z" />
    <glyph glyph-name="uniE605" unicode="&#xe605;" 
d="M1011 635l-478 -408q-9 -7 -20.5 -7t-19.5 7l-482 400q-5 -12 -5 -27v-520q0 -34 23.5 -57t56.5 -23h856q34 0 57 23t23 57v520q-2 17 -11 35zM531 310l429 367q-13 3 -21 3h-854q-18 0 -31 -6l437 -365q8 -6 20 -6t20 7z" />
    <glyph glyph-name="uniE606" unicode="&#xe606;" 
d="M1011 680q-16 34 -49 42q-13 3 -21 3h-856q-34 0 -57 -23.5t-23 -56.5v-520q0 -34 23 -57t57 -23h856q33 0 56.5 23t23.5 57v518q0 15 -10 37zM890 659l-356 -304q-8 -7 -20 -7t-21 7l-367 304h764zM941 109h-856q-16 0 -16 16v501l425 -354q9 -7 20.5 -7t21.5 7l421 360
v-507q0 -7 -5 -11.5t-11 -4.5z" />
    <glyph glyph-name="uniE607" unicode="&#xe607;" 
d="M512 349zM515 349q-13 0 -22.5 9.5t-9.5 22.5v480q0 13 9.5 22.5t22.5 9.5t22.5 -9.5t9.5 -22.5v-480q0 -13 -9.5 -22.5t-22.5 -9.5zM678 674q0 -20 16 -28q100 -55 154.5 -157.5t39.5 -221.5q-16 -128 -109.5 -220t-221.5 -106q-83 -10 -160.5 16.5t-134 77.5
t-90.5 124.5t-34 155.5q0 102 49.5 187.5t132.5 135.5q16 11 16 28q0 19 -16 28t-32 -1q-106 -63 -164.5 -173t-48.5 -238q8 -108 64.5 -199t148 -146.5t198.5 -62.5q95 -6 182 26.5t150.5 92t101 143.5t37.5 178q0 123 -63 226t-168 161q-15 10 -31.5 1t-16.5 -28z" />
    <glyph glyph-name="uniE608" unicode="&#xe608;" 
d="M408 168q-10 -10 -22.5 -10t-22.5 10l-206 210q-10 9 -10 22t9.5 22.5t22.5 9.5t23 -10l184 -187l464 469q8 9 19.5 10.5t21.5 -5.5q12 -9 13.5 -24t-8.5 -24z" />
    <glyph glyph-name="uniE609" unicode="&#xe609;" 
d="M35 862l941 -939zM549 384l310 312q10 10 10 23t-10 22q-9 9 -22.5 9t-22.5 -9l-310 -312l-310 313q-10 10 -23 10t-22.5 -9.5t-9.5 -22.5t10 -22l310 -314l-310 -312q-10 -10 -10 -22.5t9.5 -22t22.5 -9.5t23 9l310 312l310 -312q10 -9 23 -9t22.5 9.5t9.5 22t-10 22.5z
" />
    <glyph glyph-name="uniE60A" unicode="&#xe60a;" 
d="M672 382zM368 26q-10 -10 -22.5 -10t-22 9.5t-9.5 22.5t9 22l311 314l-309 312q-9 9 -10.5 20.5t5.5 21.5q8 12 23 13t25 -10l333 -336q9 -10 9 -22.5t-9 -22.5z" />
    <glyph glyph-name="uniE60B" unicode="&#xe60b;" 
d="M352 382zM323 360q-9 10 -9 22.5t9 22.5l333 336q10 11 25 10t23 -13q7 -10 5.5 -21.5t-10.5 -20.5l-309 -312l311 -314q9 -9 9 -22t-9.5 -22.5t-22 -9.5t-22.5 10z" />
    <glyph glyph-name="uniE60C" unicode="&#xe60c;" 
d="M848 414h-302v306q0 13 -9.5 22.5t-23 9.5t-22.5 -9.5t-9 -22.5v-306h-306q-13 0 -22.5 -9t-9.5 -22.5t9.5 -23t22.5 -9.5h306v-302q0 -13 9 -22.5t22.5 -9.5t23 9.5t9.5 22.5v302h302q13 0 22.5 9.5t9.5 23t-9.5 22.5t-22.5 9z" />
    <glyph glyph-name="uniE60D" unicode="&#xe60d;" 
d="M720 672q-7 15 -16.5 29.5t-30 36.5t-44 37.5t-60.5 24.5t-78 5q-51 -6 -91 -26t-63.5 -46t-39 -58.5t-21 -60t-4.5 -52.5q0 -14 9.5 -23t22.5 -9t22.5 9t9.5 23q0 4 0.5 10.5t3.5 23.5t8.5 32.5t17.5 35t28.5 34t43.5 26.5t60 15q35 4 65 -5t49.5 -27t30.5 -33t19 -31
q41 -80 -43 -171l-73 -70q-27 -25 -52 -66l-3 -5q-22 -33 -22 -86v-85q0 -13 9.5 -22.5t22.5 -9.5t22.5 9.5t9.5 22.5v86q0 35 11 52l5 8q15 26 40 51l73 72l2 1q114 122 56 242zM506 29zM458 29q0 20 14 34t33.5 14t34 -14t14.5 -34t-14.5 -34t-34 -14t-33.5 14t-14 34z
" />
    <glyph glyph-name="uniE60E" unicode="&#xe60e;" 
d="M496 184q-13 0 -22.5 9t-9.5 21v509q0 13 9.5 22t22.5 9t22.5 -9.5t9.5 -21.5v-509q0 -13 -9.5 -21.5t-22.5 -8.5zM496 82zM456 81.5q0 16.5 11.5 28.5t28.5 12t28.5 -12t11.5 -28.5t-11.5 -28t-28.5 -11.5t-28.5 11.5t-11.5 28z" />
    <glyph glyph-name="uniE60F" unicode="&#xe60f;" 
d="M176 350q-13 0 -22.5 9.5t-9.5 23t9.5 22.5t22.5 9h672q13 0 22.5 -9t9.5 -22.5t-9.5 -23t-22.5 -9.5h-672z" />
    <glyph glyph-name="uniE610" unicode="&#xe610;" 
d="M190 416h212q33 0 56.5 23t23.5 57v216q0 34 -23.5 57t-56.5 23h-212q-33 0 -56.5 -23t-23.5 -57v-216q0 -34 23.5 -57t56.5 -23zM174 712q0 16 16 16h212q16 0 16 -16v-216q0 -16 -16 -16h-212q-16 0 -16 16v216zM296 603zM248 603q0 20 14 34t34 14t34 -14t14 -34
t-14 -34t-34 -14t-34 14t-14 34zM834 792h-212q-33 0 -56.5 -23t-23.5 -57v-216q0 -34 23.5 -57t56.5 -23h212q33 0 56.5 23t23.5 57v216q0 33 -23.5 56.5t-56.5 23.5zM850 496q0 -16 -16 -16h-212q-16 0 -16 16v216q0 16 16 16h212q16 0 16 -16v-216zM728 603zM680 603
q0 20 14 34t34 14t34 -14t14 -34t-14 -34t-34 -14t-34 14t-14 34zM402 352h-212q-33 0 -56.5 -23t-23.5 -57v-216q0 -34 23.5 -57t56.5 -23h212q33 0 56.5 23t23.5 57v216q0 34 -23.5 57t-56.5 23zM418 56q0 -16 -16 -16h-212q-16 0 -16 16v216q0 16 16 16h212q16 0 16 -16
v-216zM296 165zM248 165q0 20 14 34t34 14t34 -14t14 -34t-14 -34t-34 -14t-34 14t-14 34zM744 61h-46q-16 0 -16 -16v-53q0 -16 16 -16h46q16 0 16 16v53q0 16 -16 16zM834 45v-69q33 0 56.5 23t23.5 57v5h-64q-7 0 -11.5 -4.5t-4.5 -11.5zM845 350v-126q0 -16 -16 -16h-40
q-16 0 -16 16v128h-149q-34 0 -57 -23t-23 -57v-216q0 -30 20 -52.5t49 -25.5v195q0 16 16 16h40q16 0 16 -16v-23q0 -16 16 -16h200q16 0 16 16v122q-3 30 -23 52.5t-49 25.5z" />
    <glyph glyph-name="uniE611" unicode="&#xe611;" 
d="M907 14h-168q95 59 151 157t56 213q0 88 -34.5 168t-93 138.5t-138.5 93t-168 34.5t-168 -34.5t-138.5 -93t-93 -138.5t-34.5 -168q0 -117 58 -217t158 -158.5t218 -58.5h10h385q13 0 22.5 9.5t9.5 23t-9.5 22.5t-22.5 9zM302 285q-40 0 -69.5 29t-29.5 70t29.5 70t70 29
t70 -29t29.5 -70t-29 -70t-71 -29zM512 74q-41 0 -70 29t-29 70t29 70t70 29t70 -29t29 -70t-29 -70t-70 -29zM512 491q-41 0 -70 29.5t-29 70t29 70t70 29.5t70 -29.5t29 -70t-29 -70t-70 -29.5zM619 384q0 41 29.5 70t70 29t70 -29t29.5 -70t-29.5 -70t-70 -29t-70 29
t-29.5 70z" />
    <glyph glyph-name="uniE612" unicode="&#xe612;" 
d="M512 755q100 0 185 -49t135 -134.5t50 -186t-50 -185.5t-135 -133.5t-185 -48.5t-185 49t-135 134t-50 185t50 185t135 134.5t185 49.5zM512 819q-117 0 -217 -58t-158.5 -157.5t-58.5 -217.5t58.5 -217.5t158.5 -157t217 -57.5t217 57.5t158.5 157.5t58.5 218
t-58.5 217.5t-158.5 157t-217 57.5zM512 643q22 0 36.5 -14.5t14.5 -36.5t-14.5 -36.5t-36.5 -14.5t-36.5 14.5t-14.5 36.5t14.5 36.5t36.5 14.5zM512 691q-41 0 -70 -29t-29 -70t29 -70t70 -29t70 29t29 70t-29 70t-70 29zM512 226q22 0 36.5 -15t14.5 -36.5t-14.5 -36.5
t-36.5 -15t-36.5 15t-14.5 36.5t14.5 36.5t36.5 15zM512 274q-41 0 -70 -29.5t-29 -70t29 -70t70 -29.5t70 29.5t29 69.5q0 42 -29 71t-70 29zM718 437q22 0 37 -15t15 -36.5t-15 -36.5t-36.5 -15t-36.5 15t-15 37q0 21 15.5 36t35.5 15zM718 485q-40 0 -69.5 -29.5
t-29.5 -70t29.5 -70t70 -29.5t70 29.5t29.5 70.5t-29 70t-71 29zM302 437q22 0 37 -15t15 -36.5t-15 -36.5t-36.5 -15t-36.5 15t-15 37q0 21 15.5 36t35.5 15zM302 485q-40 0 -69.5 -29.5t-29.5 -70t29.5 -70t70 -29.5t70 29.5t29.5 70.5t-29 70t-71 29zM522 -46h385
q13 0 22.5 9t9.5 22.5t-9.5 23t-22.5 9.5h-385v-64z" />
    <glyph glyph-name="uniE613" unicode="&#xe613;" 
d="M510.5 -34q-105.5 0 -194.5 52.5t-141 141.5t-52 194q0 44 10 88q-51 23 -81 69t-30 102q0 78 55.5 133.5t133.5 55.5q49 0 91 -23.5t68 -63.5q69 27 142 27t142 -27q26 41 68 64t91 23q78 0 133.5 -55.5t55.5 -133.5q0 -56 -30.5 -102t-80.5 -69q10 -44 10 -88
q-2 -105 -54 -194t-141.5 -141.5t-195 -52.5z" />
    <glyph glyph-name="uniE614" unicode="&#xe614;" 
d="M512 -34q-105 0 -194.5 52.5t-141 141.5t-51.5 194q0 44 9 88q-50 23 -80 69t-30 102q0 78 55.5 133.5t133.5 55.5q49 0 91 -23.5t67 -63.5q69 27 142.5 27t142.5 -27q25 41 67 64t91 23q78 0 133.5 -55.5t55.5 -133.5q0 -56 -30 -102t-80 -69q9 -44 9 -88
q-1 -105 -53.5 -194t-142 -141.5t-194.5 -52.5zM211 738q-51 0 -88 -37t-37 -88q0 -43 26.5 -76t68.5 -44q13 -3 21 -16q6 -11 3 -26q-16 -53 -16 -99q0 -88 43.5 -162.5t118 -117.5t161.5 -43t161.5 43.5t118 118.5t43.5 163q0 53 -16 99q-5 12 3 25q7 12 21 16
q41 11 68 45t27 75q0 52 -37 88.5t-88 36.5q-38 0 -69.5 -21t-45.5 -56q-5 -12 -18 -17q-14 -6 -26 1q-67 34 -142 34t-142 -34q-15 -6 -26 -1q-13 5 -18 17q-14 35 -45 55.5t-70 20.5z" />
    <glyph glyph-name="uniE615" unicode="&#xe615;" 
d="M1011 293q-7 57 -38 157t-77 169q-18 25 -35 45q-31 35 -56.5 50.5t-60.5 23.5q-38 8 -86 -12q-6 -2 -17 -8l-17 -8q-21 -10 -33 -15t-31.5 -9.5t-39.5 -5.5h-13q-10 1 -20.5 2.5t-17 3t-18 5.5t-15 5.5t-17 7t-16.5 6.5q-5 3 -16.5 8.5t-16.5 7.5q-53 19 -87 12
t-59.5 -23.5t-57.5 -50.5q-17 -20 -35 -45q-46 -69 -78 -171.5t-37 -154.5q-6 -45 -7 -87.5t9 -92t35 -73.5q19 -19 54 -19h16q42 4 81.5 23t89.5 63q14 12 26 22t22.5 18t17.5 13.5t16 10.5t12 7.5t12 6.5t10.5 4.5t11.5 4.5t12 4q19 7 27 8q4 1 16.5 3t21.5 4q12 2 24 0
q12 -1 39 -7q19 -3 27 -8q2 -1 10 -4t10.5 -4t9.5 -4t10.5 -5t11 -6t13 -8t14.5 -11l16 -12q9 -7 20 -16.5t24 -20.5q50 -44 90 -63t81 -23h16q35 0 55 19q26 24 37.5 74t10.5 92t-7 87zM427 394h-56v-56q0 -10 -7 -17t-16.5 -7t-17 7t-7.5 17v56h-56q-9 0 -16.5 7
t-7.5 16.5t7.5 17t16.5 7.5h56v56q0 9 7.5 16.5t17 7.5t16.5 -7.5t7 -16.5v-56h56q10 0 17 -7.5t7 -17t-7 -16.5t-17 -7zM673.5 366q-26.5 0 -45 19t-18.5 45.5t18.5 45t45 18.5t45.5 -18.5t19 -45t-19 -45.5t-45.5 -19z" />
    <glyph glyph-name="uniE616" unicode="&#xe616;" 
d="M427 442h-56v56q0 9 -7 16.5t-16.5 7.5t-17 -7.5t-7.5 -16.5v-56h-56q-9 0 -16.5 -7.5t-7.5 -17t7.5 -16.5t16.5 -7h56v-56q0 -10 7.5 -17t17 -7t16.5 7t7 17v56h56q10 0 17 7t7 17t-7 17t-17 7zM674 430zM610 430.5q0 26.5 18.5 45t45 18.5t45.5 -18.5t19 -45t-19 -45.5
t-45.5 -19t-45 19t-18.5 45.5zM1011 293q-7 57 -38 157t-77 169q-18 25 -35 45q-31 35 -56.5 50.5t-60.5 23.5q-38 8 -86 -12q-6 -2 -17 -8l-17 -8q-21 -10 -33 -15t-31.5 -9.5t-39.5 -5.5h-13q-10 1 -20.5 2.5t-17 3t-18 5.5t-15 5.5t-17 7t-16.5 6.5q-5 3 -16.5 8.5
t-16.5 7.5q-53 19 -87 12t-59.5 -23.5t-57.5 -50.5q-17 -20 -35 -45q-46 -69 -78 -171.5t-37 -154.5q-6 -45 -7 -87.5t9 -92t35 -73.5q19 -19 54 -19h16q42 4 81.5 23t89.5 63q14 12 26 22t22.5 18t17.5 13.5t16 10.5t12 7.5t12 6.5t10.5 4.5t11.5 4.5t12 4q19 7 27 8
q4 1 16.5 3t21.5 4q12 2 24 0q12 -1 39 -7q19 -3 27 -8q2 -1 10 -4t10.5 -4t9.5 -4t10.5 -5t11 -6t13 -8t14.5 -11l16 -12q9 -7 20 -16.5t24 -20.5q50 -44 90 -63t81 -23h16q35 0 55 19q26 24 37.5 74t10.5 92t-7 87zM934 93q-4 -7 -14 -7q-66 4 -144 69q-64 54 -93.5 72.5
t-66.5 31.5q-10 4 -40 11q-38 5 -61 5q-41 0 -61 -5q-15 -2 -40 -11q-37 -14 -66.5 -32.5t-93.5 -71.5q-84 -70 -139 -67q-14 0 -19 5q-16 15 -19.5 68t6.5 124q6 47 35 141t71 156q20 28 29 37q25 28 42 39t41 16t49 -7q5 -2 15.5 -6t15.5 -7q54 -25 104 -33q31 -7 65 0
q40 8 104 33q28 12 31 13q30 11 49 7q24 -5 41 -16t43 -39q8 -9 28 -37q42 -62 71 -156t35 -141q11 -157 -18 -192z" />
    <glyph glyph-name="uniE617" unicode="&#xe617;" 
d="M512 250q77 0 131.5 54t54.5 131v247q0 76 -54.5 130.5t-131.5 54.5t-131.5 -54.5t-54.5 -130.5v-247q0 -77 54.5 -131t131.5 -54zM728 -29h-182v130v1q124 12 210 105.5t86 219.5q0 13 -9.5 22.5t-22.5 9.5q-14 0 -23 -9.5t-9 -22.5q-2 -109 -79 -185.5t-185 -76.5
q-110 0 -187 77.5t-77 186.5q0 13 -9.5 22.5t-23 9.5t-22.5 -9.5t-9 -22.5q0 -127 85.5 -221t210.5 -106v-1v-130h-183q-13 0 -22.5 -9.5t-9.5 -22.5t9.5 -22.5t22.5 -9.5h429q13 0 22.5 9.5t9.5 22.5t-9.5 22.5t-22.5 9.5z" />
    <glyph glyph-name="uniE618" unicode="&#xe618;" 
d="M512 803q50 0 86 -35.5t36 -85.5v-247q0 -50 -36 -85.5t-86 -35.5t-86 35.5t-36 85.5v247q0 50 36 85.5t86 35.5zM512 867q-77 0 -131.5 -54.5t-54.5 -130.5v-247q0 -77 54.5 -131t131.5 -54t131.5 54t54.5 131v247q0 76 -54.5 130.5t-131.5 54.5zM728 -29h-182v130v1
q124 12 210 105.5t86 219.5q0 13 -9.5 22.5t-22.5 9.5q-14 0 -23 -9.5t-9 -22.5q-2 -109 -79 -185.5t-185 -76.5q-110 0 -187 77.5t-77 186.5q0 13 -9.5 22.5t-23 9.5t-22.5 -9.5t-9 -22.5q0 -127 85.5 -221t210.5 -106v-1v-130h-183q-13 0 -22.5 -9.5t-9.5 -22.5t9.5 -22.5
t22.5 -9.5h429q13 0 22.5 9.5t9.5 22.5t-9.5 22.5t-22.5 9.5z" />
    <glyph glyph-name="uniE619" unicode="&#xe619;" 
d="M717 821q-59 0 -113 -27.5t-92 -81.5v0q-38 54 -92 81.5t-113 27.5q-51 0 -98.5 -20.5t-86 -58t-61.5 -96.5t-23 -129q0 -66 32.5 -137.5t79.5 -130t112.5 -118.5t119.5 -100.5t112 -78.5q8 -5 18 -5t18 5q57 38 111.5 78.5t119.5 100.5t112.5 119t80 130t32.5 137
q0 70 -23 129t-61.5 96.5t-86 58t-98.5 20.5z" />
    <glyph glyph-name="uniE61A" unicode="&#xe61a;" 
d="M717 821q-59 0 -113 -27.5t-92 -81.5v0q-38 54 -92 81.5t-113 27.5q-51 0 -98.5 -20.5t-86 -58t-61.5 -96.5t-23 -129q0 -66 32.5 -137.5t79.5 -130t112.5 -118.5t119.5 -100.5t112 -78.5q8 -5 18 -5t18 5q57 38 111.5 78.5t119.5 100.5t112.5 119t80 130t32.5 137
q0 70 -23 129t-61.5 96.5t-86 58t-98.5 20.5zM512 18q-194 129 -302 260.5t-108 238.5q0 111 61.5 175.5t143.5 64.5q95 0 152 -82l26 -37q8 -10 19 -12q2 0 4 -1t4 -1q5 0 8 2q11 2 19 12l26 37q59 82 152 82q38 0 74.5 -16t65.5 -45t47 -76t18 -103q0 -107 -108.5 -239
t-301.5 -260z" />
    <glyph glyph-name="uniE61B" unicode="&#xe61b;" 
d="M885 736q-13 0 -22.5 -9.5t-9.5 -22.5v-112q-54 88 -145.5 139t-195.5 51q-109 0 -201 -53.5t-145.5 -145.5t-53.5 -200.5t53.5 -201t145.5 -146t201 -53.5q108 0 202 55t147 149q6 12 2.5 24.5t-15.5 18.5t-24.5 2.5t-18.5 -15.5q-45 -78 -123.5 -124t-169.5 -46
t-168.5 45t-122.5 122.5t-45 169t45 168.5t122.5 122t168.5 45t169.5 -45.5t123.5 -123.5h-101q-13 0 -22.5 -9.5t-9.5 -22.5t9.5 -22.5t22.5 -9.5h179h2q13 0 22.5 9.5t9.5 22.5v187q0 13 -9.5 22.5t-22.5 9.5z" />
    <glyph glyph-name="uniE61C" unicode="&#xe61c;" 
d="M802 446h-5v85q0 118 -83.5 201.5t-201.5 83.5t-201.5 -83.5t-83.5 -201.5v-85h-5q-33 0 -56.5 -23t-23.5 -57v-334q0 -34 23.5 -57t56.5 -23h581q34 0 57 23t23 57v334q-1 33 -24.5 56.5t-56.5 23.5zM291 531q0 91 65 156t156 65t156 -65t65 -156v-85h-442v85z" />
    <glyph glyph-name="uniE61D" unicode="&#xe61d;" 
d="M790 446h-4v85q0 118 -84 201.5t-201 83.5q-118 0 -201.5 -83.5t-83.5 -201.5v-85h-5q-33 0 -56.5 -23t-23.5 -57v-334q0 -34 23.5 -57t56.5 -23h581q34 0 57 23t23 57v334q-1 33 -24.5 56.5t-57.5 23.5zM280 531q0 91 65 156t156 65t156 -65t65 -156v-85h-442v85z
M806 32q0 -16 -16 -16h-579q-16 0 -16 16v334q0 16 16 16h581q16 0 16 -16v-334h-2z" />
    <glyph glyph-name="uniE61E" unicode="&#xe61e;" 
d="M950 512q-51 4 -86 41t-35 87q0 31 14 58t4.5 57.5t-36.5 46.5l-43 25v0l-42 24q-27 16 -57 9t-48 -33q-17 -26 -45.5 -41.5t-62 -15.5t-62 15.5t-45.5 41.5q-18 26 -47.5 33t-57.5 -9l-45 -24v0l-42 -24q-27 -15 -36 -45.5t4 -58.5q15 -26 15 -57q0 -52 -35 -88.5
t-87 -39.5v-2q-31 -2 -52 -25t-21 -55v-48v-50q0 -31 21.5 -54t51.5 -26l2 -1q50 -3 85 -40t35 -88q0 -31 -15 -58q-13 -27 -4 -57.5t36 -46.5l85 -49q28 -16 58.5 -9t47.5 33t45.5 41.5t61.5 15.5t61.5 -15.5t45.5 -41.5q19 -26 48.5 -33.5t57.5 9.5l85 49q26 16 35.5 45.5
t-3.5 57.5q0 1 -2 1q-1 1 -1.5 2.5t-1.5 2.5l-2 2q-9 24 -9 49q0 51 34.5 88t85.5 40l1 2q32 2 53 25t21 55v51v50q2 30 -19 53t-52 25zM547 187q-22 -3 -35 -3t-35 3q-70 12 -117 67q-22 25 -35 61q-13 33 -13 67q0 31 11 68q13 36 35 60q45 55 119 68q22 3 35 3t35 -3
q68 -12 119 -68q24 -29 35 -60q11 -30 11 -68q0 -34 -13 -67q-11 -31 -35 -61q-47 -55 -117 -67z" />
    <glyph glyph-name="uniE61F" unicode="&#xe61f;" 
d="M686 798q5 0 8 -1l42 -24v0l42 -24q11 -9 6 -21q0 -1 -1 -2.5t-1 -2.5q-17 -35 -17 -81q0 -73 48.5 -127.5t120.5 -63.5q4 -1 12 -1q5 0 9.5 -5t4.5 -11v-50v-50q0 -13 -14 -16q-5 0 -15 -3q-71 -9 -118.5 -63t-47.5 -127q0 -39 14 -75q1 -1 2 -3.5t1 -3.5t1 -1.5t1 -1.5
v-2q7 -13 -6 -20l-85 -50q-2 -2 -8 -2q-9 0 -13 7q-3 3 -5 6q-27 38 -68.5 59t-88.5 21q-46 0 -87.5 -21t-68.5 -59q-4 -3 -5 -6q-4 -7 -13 -7q-5 0 -8 2l-85 50q-5 2 -7 8t1 12q0 1 0.5 2.5t0.5 2.5q18 35 18 82q0 72 -47.5 126.5t-117.5 63.5q-9 3 -14 3q-6 0 -10.5 5
t-4.5 11v50v50q0 13 15 16q1 0 5 0.5t6 0.5q72 9 121 63.5t49 127.5q0 40 -18 78q-1 1 -1.5 3.5t-1.5 2.5q-6 14 6 21l45 24v0l42 24q1 2 8 2q8 0 12 -7q2 -3 5 -6q28 -37 68.5 -57.5t87 -20.5t87 20.5t68.5 57.5l1 2l2.5 2.5t2.5 1.5q6 8 14 8zM686 862q-43 0 -65 -35
q-17 -26 -45.5 -41.5t-62 -15.5t-62 15.5t-45.5 41.5q-25 35 -65 35q-22 0 -40 -11l-45 -24v0l-42 -24q-27 -15 -36 -45.5t4 -58.5q15 -26 15 -57q0 -52 -35 -88.5t-87 -39.5v-2q-31 -2 -52 -25t-21 -55v-48v-50q0 -31 21.5 -54t51.5 -26l2 -1q50 -3 85 -40t35 -88
q0 -31 -15 -58q-13 -27 -4 -57.5t36 -46.5l85 -49q23 -12 40 -12q42 0 67 36q17 26 45.5 41.5t62.5 15.5q32 0 61 -15.5t46 -41.5q25 -36 67 -36q22 0 40 12l85 49q26 16 35.5 45.5t-3.5 57.5q0 1 -2 1q-1 1 -1.5 2.5t-1.5 2.5l-2 2q-9 24 -9 49q0 51 34.5 88t85.5 40l1 2
q32 2 53 25t21 55v51v50q0 31 -21.5 54t-52.5 26v1q-50 3 -85.5 40t-35.5 88q0 31 14 58t4.5 57.5t-36.5 46.5l-43 22v0l-42 24q-18 11 -40 11zM512 520q16 0 24 -2q46 -7 80 -46q16 -21 24 -42q8 -24 8 -46q0 -20 -8 -46q-5 -16 -24 -42q-32 -37 -80 -46q-8 -2 -24 -2
t-24 2q-46 7 -80 46q-16 21 -24 42q-8 24 -8 46q0 20 8 46q6 22 24 42q31 36 80 46q8 2 24 2zM512 584q-13 0 -35 -3q-68 -12 -119 -67q-24 -30 -35 -61q-11 -29 -11 -67q0 -34 13 -68q11 -31 35 -60q45 -55 117 -68q22 -3 35 -3t35 3q70 12 117 68q22 24 35 60q13 34 13 68
q0 30 -11 67q-13 36 -35 61q-45 55 -119 67q-22 3 -35 3z" />
    <glyph glyph-name="uniE620" unicode="&#xe620;" 
d="M386 384q0 26 9 48q8 19 27 42q18 17 42 26.5t48 9.5q26 0 48 -9q19 -8 42 -27q17 -18 26.5 -42t9.5 -48q0 -26 -9 -48q-8 -19 -27 -42q-18 -17 -42 -26.5t-48 -9.5q-26 0 -48 9q-19 8 -42 27q-17 18 -27 42q-9 22 -9 48zM502 691q-60 0 -118.5 -17t-102.5 -44t-84 -59.5
t-67 -65.5t-47.5 -60t-29.5 -44l-10 -17q5 -6 13 -17.5t35 -43t55.5 -60.5t72.5 -64.5t88 -61t99.5 -43t109 -17.5t108 17t99 44.5t85.5 60.5t71.5 66t53.5 60.5t35 44.5l11 17q-4 7 -11 17.5t-31.5 42.5t-51.5 60.5t-70 63.5t-88 60.5t-104.5 42.5t-120.5 17zM512 160
q-92 0 -158 66t-66 158t66 158t158 66t158 -66t66 -158t-66 -158t-158 -66zM512 160z" />
    <glyph glyph-name="uniE621" unicode="&#xe621;" 
d="M512 446q12 0 24 -4q8 -4 21 -13q7 -8 13 -21q4 -12 4 -24t-4 -24q-4 -8 -13 -21q-8 -7 -21 -13q-12 -4 -24 -4t-24 4q-8 4 -21 13q-7 8 -13 21q-4 12 -4 24t4 24q4 8 13 21q8 7 21 13q12 4 24 4zM512 510q-26 0 -48 -9q-19 -8 -42 -27q-17 -18 -26.5 -42t-9.5 -48
q0 -26 9 -48q8 -19 27 -42q18 -17 42 -26.5t48 -9.5q26 0 48 9q19 8 42 27q17 18 26.5 42t9.5 48q0 26 -9 48q-8 19 -27 42q-18 17 -42 27q-22 9 -48 9zM515 72q-51 0 -104.5 16.5t-94.5 39t-83.5 57t-68.5 59.5t-54 58.5t-34 41.5t-15 21l-11 16l9 17q4 8 12 21.5t29.5 43
t46.5 58t64 61t81 56.5t97.5 40t114.5 16q58 0 115 -16t99.5 -39t84.5 -56.5t67.5 -59.5t51 -58.5t32 -42t12.5 -20.5l10 -18l-11 -16l-1 -2q-9 -12 -18.5 -25t-36 -44.5t-53 -58t-67.5 -59t-81.5 -54.5t-91.5 -37.5t-101 -15.5zM125 386q17 -24 39 -49t63 -63.5t82.5 -67
t97 -49.5t108.5 -21t107.5 21t95.5 49.5t81 67t61.5 64t38.5 49.5q-16 24 -36 48.5t-59.5 62t-81 65t-100 47.5t-118.5 20q-60 1 -117 -19t-97.5 -48.5t-77 -65.5t-55 -62.5t-32.5 -48.5zM512 160z" />
    <glyph glyph-name="uniE622" unicode="&#xe622;" 
d="M389 427h-223q-33 0 -56.5 23.5t-23.5 56.5v223q0 33 23.5 56.5t56.5 23.5h223q33 0 56.5 -23.5t23.5 -56.5v-223q0 -33 -23.5 -56.5t-56.5 -23.5zM858 427h-223q-33 0 -56.5 23.5t-23.5 56.5v223q0 33 23.5 56.5t56.5 23.5h223q33 0 56.5 -23.5t23.5 -56.5v-223
q0 -33 -24 -56.5t-56 -23.5zM389 -42h-223q-33 0 -56.5 23.5t-23.5 56.5v223q0 33 23.5 56.5t56.5 23.5h223q33 0 56.5 -23.5t23.5 -56.5v-223q0 -32 -23.5 -56t-56.5 -24zM858 -42h-223q-33 0 -56.5 23.5t-23.5 56.5v223q0 33 23.5 56.5t56.5 23.5h223q33 0 56.5 -23.5
t23.5 -56.5v-223q0 -32 -24 -56t-56 -24z" />
    <glyph glyph-name="uniE623" unicode="&#xe623;" 
d="M389 746q16 0 16 -16v-223q0 -16 -16 -16h-223q-16 0 -16 16v223q0 16 16 16h223zM389 810h-223q-33 0 -56.5 -23.5t-23.5 -56.5v-223q0 -33 23.5 -56.5t56.5 -23.5h223q33 0 56.5 23.5t23.5 56.5v223q0 33 -23.5 56.5t-56.5 23.5zM858 746q16 0 16 -16v-223
q0 -7 -5 -11.5t-11 -4.5h-223q-16 0 -16 16v223q0 16 16 16h223zM858 810h-223q-33 0 -56.5 -23.5t-23.5 -56.5v-223q0 -33 23.5 -56.5t56.5 -23.5h223q32 0 56 23.5t24 56.5v223q0 33 -23.5 56.5t-56.5 23.5zM389 277q16 0 16 -16v-223q0 -6 -4.5 -11t-11.5 -5h-223
q-16 0 -16 16v223q0 16 16 16h223zM389 341h-223q-33 0 -56.5 -23.5t-23.5 -56.5v-223q0 -33 23.5 -56.5t56.5 -23.5h223q33 0 56.5 24t23.5 56v223q0 33 -23.5 56.5t-56.5 23.5zM858 277q16 0 16 -16v-223q0 -6 -5 -11t-11 -5h-223q-16 0 -16 16v223q0 16 16 16h223z
M858 341h-223q-33 0 -56.5 -23.5t-23.5 -56.5v-223q0 -33 23.5 -56.5t56.5 -23.5h223q32 0 56 24t24 56v223q0 33 -23.5 56.5t-56.5 23.5z" />
    <glyph glyph-name="uniE624" unicode="&#xe624;" 
d="M792 315l-242 -243q-61 -61 -147.5 -61t-148 61t-61.5 148t61 148l351 350q38 38 92.5 37.5t93 -39t38.5 -92.5t-39 -93l-350 -349q-16 -15 -38 -15t-37.5 15.5t-15.5 37.5t16 38v0l296 294q9 10 9 22.5t-9.5 22t-22 9.5t-22.5 -9l-296 -295v0v0q-34 -34 -34 -82.5
t34 -81.5q35 -35 83.5 -35t82.5 35v0l349 348q58 58 58 139t-58 138.5t-138 56.5t-137 -58l-350 -349q-81 -81 -81 -194t81 -192q80 -80 193 -80t192 80l243 245q10 10 10 22.5t-10 22.5q-9 8 -23 8t-23 -10z" />
    <glyph glyph-name="uniE625" unicode="&#xe625;" 
d="M870 822h-716q-34 0 -57 -23t-23 -57v-716q0 -34 23 -57t57 -23h716q34 0 57 23t23 57v716q0 33 -23.5 56.5t-56.5 23.5zM285 178q0 -16 -16 -16h-32q-16 0 -16 16v32q0 16 16 16h32q16 0 16 -16v-32zM285 368q0 -16 -16 -16h-32q-16 0 -16 16v32q0 16 16 16h32
q16 0 16 -16v-32zM285 560q0 -16 -16 -16h-32q-16 0 -16 16v32q0 16 16 16h32q16 0 16 -16v-32zM821 178q0 -16 -15 -16h-424q-16 0 -16 16v32q0 16 16 16h423q16 0 16 -16v-32zM821 368q0 -16 -15 -16h-424q-16 0 -16 16v32q0 16 16 16h423q16 0 16 -16v-32zM821 560
q0 -16 -15 -16h-424q-16 0 -16 16v32q0 16 16 16h423q16 0 16 -16v-32z" />
    <glyph glyph-name="uniE626" unicode="&#xe626;" 
d="M870 758q16 0 16 -16v-716q0 -16 -16 -16h-716q-16 0 -16 16v716q0 16 16 16h716zM870 822h-716q-34 0 -57 -23t-23 -57v-716q0 -34 23 -57t57 -23h716q34 0 57 23t23 57v716q0 33 -23.5 56.5t-56.5 23.5zM269 544h-32q-16 0 -16 16v32q0 16 16 16h32q16 0 16 -16v-32
q0 -7 -5 -11.5t-11 -4.5zM806 544h-424q-16 0 -16 16v32q0 16 16 16h424q16 0 16 -16v-32q0 -7 -4.5 -11.5t-11.5 -4.5zM806 352h-424q-16 0 -16 16v32q0 16 16 16h424q16 0 16 -16v-32q0 -6 -5 -11t-11 -5zM806 162h-424q-16 0 -16 16v32q0 16 16 16h424q16 0 16 -16v-32
q0 -7 -4.5 -11.5t-11.5 -4.5zM269 352h-32q-16 0 -16 16v32q0 16 16 16h32q16 0 16 -16v-32q0 -6 -5 -11t-11 -5zM269 162h-32q-16 0 -16 16v32q0 16 16 16h32q16 0 16 -16v-32q0 -7 -5 -11.5t-11 -4.5z" />
    <glyph glyph-name="uniE627" unicode="&#xe627;" 
d="M512 760q155 0 265.5 -110t110.5 -266t-110.5 -266t-265.5 -110t-265.5 110.5t-110.5 265.5t110.5 265.5t265.5 110.5zM512 824q-182 0 -311 -129t-129 -311t129 -311t311 -129t311 129t129 311t-129 311t-311 129zM782 406h-238v234q0 13 -9.5 22.5t-22.5 9.5
t-22.5 -9.5t-9.5 -22.5v-266q0 -13 9.5 -22.5t22.5 -9.5h2h1h266q13 0 22.5 9.5t9.5 22.5q1 13 -8 22.5t-23 9.5z" />
    <glyph glyph-name="uniE628" unicode="&#xe628;" 
d="M512 824q-182 0 -311 -129t-129 -311t129 -311t311 -129t311 129t129 311t-129 311t-311 129zM782 342h-265h-2h-1q-14 0 -23 9.5t-9 22.5v266q0 13 9 22.5t22.5 9.5t23 -9.5t9.5 -22.5v-234h238q13 0 22.5 -9t9.5 -22.5t-10 -23t-24 -9.5z" />
    <glyph glyph-name="uniE629" unicode="&#xe629;" 
d="M654 314q57 35 89.5 93.5t32.5 128.5q0 109 -77.5 186.5t-186.5 77.5t-186.5 -77.5t-77.5 -186.5q0 -68 32.5 -127t89.5 -95q-107 -42 -172 -134.5t-65 -209.5h760q-1 117 -67 209.5t-172 134.5z" />
    <glyph glyph-name="uniE62A" unicode="&#xe62a;" 
d="M832 704q-132 132 -319.5 132t-320.5 -132q-132 -132 -132 -319.5t132 -320.5q132 -132 319.5 -132t320.5 132q132 133 132 320t-132 320zM238 110q-70 71 -97.5 165.5t-7.5 189.5t83 170l136 -136q6 -44 37.5 -72t92.5 -57l126 -127q-5 -15 -15.5 -26.5t-18.5 -14.5
l-8 -4q-24 -11 -50 -10.5t-41 6t-27 12.5q-27 17 -40 45q-13 26 -38 21q-14 -4 -20 -15.5t-3 -24.5q7 -22 20.5 -40t21 -24t21.5 -16q27 -17 60 -26v-38q0 -13 9.5 -22.5t23 -9.5t22.5 9.5t9 22.5v34q27 2 58 17q42 22 62 53l106 -106q-73 -63 -168 -82.5t-189.5 8.5
t-164.5 98zM808 133l-133 133q-3 24 -8 35q-6 17 -27 41t-56 44l-54 28l-10 5l-107 107q5 22 28 37t57 16q9 0 17.5 -1t15.5 -3t13.5 -5t11.5 -6.5t9 -6.5t7 -7l6 -5q2 -2 3 -4l1 -2q8 -11 21 -13t24 5q11 8 13.5 21t-5.5 24q-1 3 -3.5 7t-11 13t-19 17t-28 15.5t-37.5 11.5
v38q0 14 -9.5 23t-22.5 9t-22.5 -9t-9.5 -23v-36q-75 -11 -107 -68l-104 104q75 64 170 84t189.5 -7.5t165 -98.5t98.5 -164.5t8 -188.5t-84 -170z" />
    <glyph glyph-name="uniE62B" unicode="&#xe62b;" 
d="M512 835q-92 0 -176 -35.5t-144.5 -96t-96.5 -144.5t-36 -177q0 -92 36 -175.5t96.5 -144.5t144.5 -96.5t176 -35.5t176 35.5t144.5 96.5t96.5 144.5t36 175.5q0 93 -36 177t-96.5 144.5t-144.5 96t-176 35.5zM336 734q-2 -1 -6.5 -4.5t-6.5 -4.5q-3 -3 -21 -10
q17 10 34 19zM513.5 -3q-105.5 0 -195 52.5t-141.5 143t-52 196.5q0 68 22 133q5 -16 3 -28q-1 -10 -6 -30t-6 -30q-2 -9 -0.5 -17t3.5 -13t7 -14.5t7 -13.5q5 -10 6.5 -32t1.5 -26q8 -46 11 -56q11 -30 18 -54q4 -14 11.5 -20t23.5 -14q4 5 2.5 7.5t-7 6.5t-6.5 6
q4 11 -1 26.5t-7.5 24t10.5 24.5q-6 5 0.5 10.5t17 11t12.5 8.5q3 4 1.5 13.5t0.5 13.5q2 8 19 12q10 3 13 10t2 15.5t1 18.5q2 11 4 13.5t10 6.5l24 9q4 10 3.5 12t-9.5 7q-29 16 -45 24q-13 7 -19 13.5t-16 22.5q-3 4 -6.5 6.5t-7.5 4.5t-7 5q-3 2 -8 8.5t-10 8.5
q-1 1 -5 3.5t-6 3.5q-2 0 -4 3t-5 3q-6 0 -10.5 -6.5t-5.5 -12.5q-5 4 -5.5 7.5t1.5 10t2 7.5q0 10 2 15q0 1 1 2.5t2 2.5l3 3q2 3 2 6q10 20 20 35q0 -1 1 -4.5t1 -4.5q4 3 8 14t6 15q12 14 26 25q2 2 7 5l7 3q5 3 12 10q4 3 14.5 8t15.5 8q5 -7 19 -7q0 2 -3 5q5 4 3 8.5
t-8 6.5q7 5 24 9q4 3 13.5 1t12.5 -2q16 0 30 4q2 2 3 5.5t1 9t1 8.5q-2 0 -7 -1t-8 -0.5t-6 2.5q2 2 2 7q-5 5 -16 5q4 1 12.5 5t12.5 6q7 -7 21 -7.5t19 5.5q1 1 1 5.5t3 5.5q3 2 4 1t1.5 -3t2.5 -2q0 -1 3 -2l4 -2q1 -1 3.5 -1.5t5 0.5t4.5 3q0 1 -2 4l-2 2q5 2 8 7
q-4 3 -7 3q15 3 47 6q4 -4 11 -4l1 -7q-4 -3 -14 -4.5t-16 -4.5q-18 -14 -16 -20l3 -6q11 -1 30.5 5t27.5 6q8 1 27.5 6t29.5 5q0 8 -8 13q16 0 18 7q77 -15 138 -55q-11 0 -23 -5q-4 -2 -12.5 -7t-12.5 -7q-8 -5 -7 -9t11 -5q6 -1 11.5 0t8 -0.5t6.5 -7.5q5 -9 7 -10t11 2
q1 0 5 3t7 3q-3 2 -8 7.5t-3 8.5q1 2 9.5 5.5t9.5 5.5q5 -6 2.5 -13t-8.5 -11q4 -5 18 -5q-4 -22 -18 -24q-4 0 -11.5 3t-12 3.5t-11.5 -2.5q-5 10 -8.5 10t-14.5 -7q-3 -2 -8.5 -5.5t-7.5 -4.5t-6.5 -2t-10.5 -1q-1 -4 0.5 -8.5t1 -8t-4.5 -7.5q-17 9 -25 -5q-7 -14 7 -20
q4 -2 10 -2q4 0 8.5 1.5t7 3t8 5t6.5 4.5t6.5 5t7.5 5q3 1 10 1h10q1 -5 4.5 -10t6.5 -7.5t9.5 -8t7.5 -6.5q0 -4 -1 -6q9 5 13 8q-1 0 -11.5 12t-11.5 20q3 -1 15 -13q2 -2 8 -4.5t8 -4.5q3 -3 4.5 -13t5 -16t10.5 -5q0 1 -2 7.5t-1 10t8 1.5q5 -2 11 -25q2 -1 9 -1.5
t11.5 -2t7.5 -4.5q3 -5 1.5 -14.5t-5.5 -13.5q-7 2 -48 23q-4 2 -8.5 3t-10 1t-8.5 1q-5 1 -7 4t-3 8t-4 8q-2 3 -6 5t-7 2.5t-8 1.5t-6 1q-2 0 -12.5 2.5t-15.5 2.5q-23 -13 -32 -13q-10 -1 -11.5 -2t-8.5 -9q-5 -6 -22.5 -16.5t-22.5 -20.5q-6 -11 -7.5 -26t4.5 -27
q18 -34 40 -48q8 -6 28.5 2t28.5 6q3 -10 15 -19q7 -7 8 -9t0 -12q-1 -5 -0.5 -9t3 -9t3.5 -9q3 -8 3 -27q0 -18 -8 -27q0 -2 -3.5 -4t-4.5 -4q-1 -4 -1 -5t1 -3.5t2 -4.5q1 -11 3 -31l3 -30q2 -10 -3 -21q0 -2 6 -1t7 1q3 -1 8 -3t8 -3q14 -2 25 9q16 16 31 45q3 6 18 16.5
t17 18.5q1 4 -1.5 15t-1.5 16t3 8.5t6.5 8.5t6.5 7q3 3 6.5 7t8 8t6.5 6q4 4 6.5 8t5.5 12t4 10q-8 4 -12 2t-7.5 -1t-6.5 9q-2 5 -7.5 14.5t-6.5 12.5q-3 4 -3.5 9t-1 11.5t-0.5 9.5q0 2 -2.5 10t-2.5 10.5t2 8.5q1 -5 7 -25t12.5 -33.5t15.5 -16.5q16 9 24 16q9 5 9.5 10
t-3.5 15q-1 0 -5 -3q-11 7 -11 34q3 -3 10.5 -11.5t13.5 -13.5t13 -7q6 -32 6 -74q4 -106 -46.5 -196t-139.5 -142t-194.5 -52z" />
    <glyph glyph-name="uniE62C" unicode="&#xe62c;" 
d="M512 835q-92 0 -175.5 -35.5t-144 -96t-96 -144t-35.5 -175.5t35.5 -176t96 -144.5t144 -96.5t175.5 -36t176 36t144.5 96.5t96.5 144.5t36 176t-36 175.5t-96.5 144t-144.5 96t-176 35.5zM512 -5q-105 0 -194.5 52t-141 141.5t-51.5 195t51.5 195t141 141t195 51.5
t195 -51.5t141.5 -141t52 -194.5t-52 -195t-142 -142t-195 -52zM282 430h456q24 0 31.5 21t-7.5 37l-144 142q-10 10 -23 10t-22.5 -9.5t-9.5 -22.5t10 -22l93 -92h-384q-14 0 -23 -9t-9 -22.5t9 -23t23 -9.5zM741 336h-456q-24 0 -32 -21t8 -37l144 -142q9 -10 22 -10
t22.5 10t9.5 22.5t-9 22.5l-93 91h384q13 0 22.5 9.5t9.5 22.5t-9.5 22.5t-22.5 9.5z" />
    <glyph glyph-name="uniE62D" unicode="&#xe62d;" 
d="M512 832q-92 0 -175.5 -35.5t-144 -96t-96 -144t-35.5 -175.5t35.5 -176t96 -144.5t144 -96.5t175.5 -36t176 35.5t144.5 96t96.5 144.5t36 176.5t-36 176.5t-96.5 144t-144.5 95.5t-176 35.5zM512.5 -8q-105.5 0 -195.5 52t-142 141.5t-52 195t52 195t141.5 141
t195 51.5t195.5 -52t142 -141.5t52 -195t-52 -195t-141.5 -141t-195 -51.5zM602 392l-55 29q-49 22 -75 39t-32 25.5t-10 23.5q-7 27 17.5 50.5t67.5 24.5q9 0 18 -1t16 -3t13.5 -5t11.5 -6.5t9 -6.5t7 -6.5t5 -5.5t3 -4l2 -2q7 -11 20.5 -13t24.5 5t13.5 20.5t-5.5 24.5
q-2 3 -4.5 7t-10.5 13t-18.5 17t-28 15.5t-37.5 11.5v38q0 13 -9.5 22.5t-23 9.5t-22.5 -9.5t-9 -22.5v-37q-57 -7 -92.5 -45t-29.5 -94q4 -50 41 -80.5t113 -64.5l43 -23q31 -15 47 -35.5t15 -37.5q-1 -23 -12.5 -39t-21.5 -21l-11 -4q-24 -11 -50 -11t-41 5.5t-27 13.5
q-27 16 -40 44q-13 26 -38 21q-14 -3 -20 -15t-3 -25q7 -22 20.5 -40t21 -24t21.5 -16q27 -17 60 -25v-39q0 -13 9.5 -22.5t23 -9.5t22.5 9.5t9 22.5v37q27 2 58 18q33 17 53 40t24.5 46t3 41t-6.5 34q-5 18 -25.5 41.5t-54.5 43.5z" />
    <glyph glyph-name="uniE62E" unicode="&#xe62e;" 
d="M512 805q-120 0 -221 -51.5t-160 -139.5t-59 -192q0 -95 51 -178t138 -137v-118q0 -12 7 -19t17 -7q6 0 13 3l120 80q38 -8 92 -8q120 0 221.5 51.5t160 139.5t58.5 192q1 104 -57.5 192.5t-159.5 140t-221 51.5zM512 102q-36 0 -82 8l-12 4q-12 2 -24 -5l-12 -8l-57 -39
v45v18q0 19 -16 27l-16 10q-74 44 -116.5 113t-42.5 146q0 86 50.5 159.5t137 116t189 42.5t189 -42.5t136.5 -116t50 -159.5q1 -86 -49 -159.5t-137 -116.5t-188 -43zM315 411zM262 411q0 22 15.5 37.5t37.5 15.5t37.5 -15.5t15.5 -37.5t-15.5 -37.5t-37.5 -15.5
t-37.5 15.5t-15.5 37.5zM515 411zM462 411q0 22 15.5 37.5t37.5 15.5t37.5 -15.5t15.5 -37.5t-15.5 -37.5t-37.5 -15.5t-37.5 15.5t-15.5 37.5zM709 411zM656 411q0 22 15.5 37.5t37.5 15.5t37.5 -15.5t15.5 -37.5t-15.5 -37.5t-37.5 -15.5t-37.5 15.5t-15.5 37.5z" />
    <glyph glyph-name="uniE62F" unicode="&#xe62f;" 
d="M512 805q-120 0 -221 -51.5t-160 -139.5t-59 -192q0 -95 51 -178t138 -137v-118q0 -12 7 -19t17 -7q6 0 13 3l120 80q38 -8 92 -8q120 0 221.5 51.5t160 139.5t58.5 192q1 104 -57.5 192.5t-159.5 140t-221 51.5zM315.5 360q-21.5 0 -37.5 15.5t-16 37t16 37.5t37.5 16
t37 -16t15.5 -37.5t-15.5 -37t-37 -15.5zM515.5 360q-21.5 0 -37.5 15.5t-16 37t16 37.5t37.5 16t37 -16t15.5 -37.5t-15.5 -37t-37 -15.5zM708.5 360q-21.5 0 -37 15.5t-15.5 37t15.5 37.5t37 16t37.5 -16t16 -37.5t-16 -37t-37.5 -15.5z" />
  </font>
</defs>
</svg>
